<svg width="101" height="32" viewBox="0 0 101 32" fill="none" xmlns="http://www.w3.org/2000/svg">
<g clip-path="url(#clip0_1217_541)">
<path d="M97.9138 24.9962C97.9129 25.4567 97.794 25.9096 97.5678 26.3141C97.3417 26.7185 97.0155 27.0617 96.6188 27.3125C96.2221 27.5633 95.7673 27.7139 95.2958 27.7505C94.8242 27.7871 94.3507 27.7087 93.9181 27.5223C91.6194 26.5282 89.6653 24.908 88.2916 22.857C86.9178 20.8061 86.1831 18.412 86.1761 15.9637C86.169 13.5153 86.89 11.1173 88.2519 9.05887C89.6138 7.00045 91.5586 5.36958 93.8515 4.36299C94.5373 4.06868 95.3148 4.05002 96.0146 4.31107C96.7145 4.57211 97.28 5.09173 97.5881 5.75675C97.8962 6.42178 97.9219 7.17836 97.6596 7.86173C97.3972 8.5451 96.8681 9.09991 96.1875 9.40535C94.8938 9.97261 93.7964 10.8923 93.0279 12.0533C92.2593 13.2143 91.8525 14.567 91.8564 15.9482C91.8604 17.3293 92.2751 18.6798 93.0503 19.8366C93.8255 20.9934 94.9282 21.9071 96.2252 22.4673C96.7278 22.6846 97.1549 23.0392 97.4546 23.4881C97.7543 23.937 97.9138 24.4608 97.9138 24.9962Z" fill="#162275"/>
<path d="M89.0144 14.407C89.7298 20.3276 95.966 22.3505 95.966 22.3505C94.7158 21.7539 93.6655 20.8239 92.9375 19.6687C92.2094 18.5135 91.8336 17.1807 91.8538 15.8257C91.874 14.4706 92.2893 13.149 93.0515 12.0148C93.8136 10.8807 94.8912 9.98067 96.1586 9.41966C96.8089 9.13232 97.3266 8.62039 97.6115 7.98293C97.8965 7.34548 97.9283 6.62781 97.701 5.96881C97.5706 5.60713 97.3644 5.27577 97.0955 4.99576C96.8266 4.71575 96.5009 4.4932 96.1389 4.34223C95.777 4.19126 95.3867 4.11516 94.993 4.11878C94.5992 4.12239 94.2105 4.20562 93.8515 4.3632C93.6473 4.45342 93.4518 4.55351 93.2534 4.65219C91.6531 5.68124 88.3946 9.27869 89.0144 14.407Z" fill="#2874F5"/>
<path d="M35.1211 5.36401L28.4201 26.516H23.1499L18.9833 16.3072L14.8935 26.516H9.62045L2.81372 5.37106H9.2497L12.7747 17.5618L17.9507 5.47679H20.0232L25.2919 17.5717L28.7474 5.37106L35.1211 5.36401Z" fill="#162275"/>
<path d="M40.5273 5.36401H46.5911V26.516H40.5273V5.36401Z" fill="#162275"/>
<path d="M73.2966 5.36401V26.516H68.3465L59.7135 15.0371V26.516H53.9133V5.37106H59.1502L67.4935 16.4693V5.36401H73.2966Z" fill="#162275"/>
<path d="M86.6103 17.1713V14.2801V5.36401H80.6233V26.516H86.6103V17.1713Z" fill="#162275"/>
</g>
<defs>
<clipPath id="clip0_1217_541">
<rect width="95.5385" height="24" fill="white" transform="translate(2.73071 4)"/>
</clipPath>
</defs>
</svg>
